# xmcd
#
# Track frame offsets:
#	150
#	14857
#	28980
#	42197
#	60362
#	79090
#	111920
#	122065
#	161155
#	179027
#	194295
#	208225
#	223042
#	236957
#	249587
#	265655
#	276542
#
# Disc length: 4078 seconds
#
# Revision: 6
# Processed by: cddbd v1.5.2PL0 Copyright (c) Steve Scherf et al.
# Submitted via: audiograbber 1.83.01
#
DISCID=0e0fec11
DTITLE=I Blueskvarter - I Blueskvarter - Chicago 1964 Vol 2 CD2
DYEAR=1964
DGENRE=Blues 60´s
TTITLE0=Little Brother Montgomery  - West Texas Blues
TTITLE1=Little Brother Montgomery  - Up The Country Blues
TTITLE2=Little Brother Montgomery  - Cow Cow Blues
TTITLE3=Little Brother Montgomery  - Mama, You Don't Mean No Good
TTITLE4=Little Brother Montgomery  - Suitcase Blues
TTITLE5=Arvella Gray  - John Henry
TTITLE6=Arvella Gray  - Corrine, Corrina
TTITLE7=Arvella Gray  - Have Mercy, Mister Percy
TTITLE8=Arvella Gray  - Captain's A Hollering
TTITLE9=St. Louis Jimmy  - Can't Stand Your Evil Ways
TTITLE10=St. Louis Jimmy -  Complete This Order
TTITLE11=St. Louis Jimmy  - Poor Boy Blues
TTITLE12=St. Louis Jimmy - The Girl I Love
TTITLE13=John Lee Granderson - Interview John Lee Granderson
TTITLE14=Avery Brady - Interview Avery Brady
TTITLE15=Little Brother Montgomery - Interview Little Brother Montgomery
TTITLE16=Arvella Gray - Interview Arvella Gray
EXTD=Olle Hellander's blues recordings for the Swedish Broadcasting Corporation
EXTD=\n\n 1 -  5: Little Brother Montgomery, vocal, piano - Mike Bloomfield, gu
EXTD=itar (21/5 1964]\n 6 -  9: Arvella Gray, vocal, piano - Jimmie Brewer, hand
EXTD=clap (16/5 1964]\n10 - 13: St. Louis Jimmy, vocal - Sunnyland Slim, piano - 
EXTD=Mike Bloomfield, guitar - Washboard Sam, washboard (19/5 1964]\n14 - 17: In
EXTD=terviews (w/Olle Helander) - John Lee Granderson - Avery Brady - Little Broth
EXTD=er Montgomery - Arvella Gray
EXTT0=(Eural Montgomery)
EXTT1=(Beulah Thomas =Sipper Wallace)
EXTT2=(Charles Davenport)
EXTT3=(Eural Montgomery)
EXTT4=(Hearsal Thomas)
EXTT5=(trad.)
EXTT6=(trad.)
EXTT7=(Arvella Gray)
EXTT8=(Arvella Gray)
EXTT9=(James B. Oden)
EXTT10=(James B. Oden)
EXTT11=(James B. Oden)
EXTT12=(James B. Oden)
EXTT13=
EXTT14=
EXTT15=
EXTT16=
PLAYORDER=
